<svg width="25" height="25" viewBox="0 0 25 25" fill="none" xmlns="http://www.w3.org/2000/svg">
<path d="M5.91953 1.49436C5.53477 1.46311 5.10703 1.57444 4.7125 1.85179C4.36485 2.09397 3.61485 2.68968 2.91367 3.36351C2.56406 3.69944 2.23008 4.04905 1.97227 4.3928C1.7125 4.73655 1.48594 5.05101 1.49961 5.50804C1.51328 5.91819 1.5543 7.13108 2.42735 8.99046C3.30039 10.8479 4.99375 13.3967 8.29649 16.7014C11.6012 20.0061 14.15 21.6994 16.0074 22.5725C17.8648 23.4455 19.0797 23.4866 19.4898 23.5002C19.9449 23.5139 20.2594 23.2873 20.6031 23.0276C20.9469 22.7678 21.2965 22.4358 21.6324 22.0862C22.3043 21.385 22.9 20.635 23.1422 20.2873C23.6949 19.5002 23.6031 18.5705 22.9879 18.1389C22.6012 17.8674 19.0445 15.5002 18.5094 15.1721C17.9664 14.8401 17.3414 14.9905 16.7828 15.2854C16.3434 15.5178 15.1539 16.1994 14.8141 16.3948C14.5582 16.2326 13.5875 15.5862 11.4996 13.4983C9.40977 11.4104 8.76524 10.4397 8.60313 10.1838C8.79844 9.84397 9.47813 8.66038 9.7125 8.21311C10.0055 7.65647 10.1695 7.02561 9.81992 6.47874C9.67344 6.24632 9.00742 5.23265 8.33555 4.21507C7.66172 3.19749 7.02305 2.23265 6.85703 2.00218V2.00022C6.64024 1.7014 6.30235 1.52561 5.91953 1.49436ZM5.82774 2.51585C5.96446 2.53343 6.04649 2.58811 6.04649 2.58811C6.12656 2.69944 6.82774 3.75022 7.49961 4.76585C8.17149 5.78343 8.85703 6.8264 8.97617 7.01585C8.99571 7.04515 9.02305 7.37718 8.82774 7.74632V7.74827C8.60703 8.16819 7.57774 9.96702 7.57774 9.96702L7.43516 10.219L7.58164 10.469C7.58164 10.469 8.34922 11.7639 10.7906 14.2053C13.234 16.6467 14.5289 17.4162 14.5289 17.4162L14.7789 17.5627L15.0309 17.4201C15.0309 17.4201 16.8258 16.3928 17.2496 16.1701C17.6188 15.9768 17.9508 16.0022 17.9898 16.0256C18.3356 16.2385 22.1773 18.7912 22.4137 18.9573C22.4215 18.9631 22.6305 19.2795 22.3258 19.7131H22.3238C22.1402 19.9768 21.5387 20.7405 20.9117 21.3928C20.5973 21.719 20.275 22.0237 20.0016 22.2287C19.7281 22.4338 19.484 22.4983 19.5231 22.5002C19.0973 22.4866 18.1578 22.4768 16.4332 21.6662C14.7086 20.8576 12.2477 19.2385 9.00352 15.9924C5.76133 12.7502 4.14219 10.2893 3.33164 8.56272C2.52305 6.83811 2.51328 5.89866 2.49961 5.47483C2.50156 5.5139 2.56602 5.2678 2.7711 4.99436C2.97617 4.72093 3.27891 4.39671 3.60508 4.08226C4.25938 3.4553 5.0211 2.85374 5.28477 2.67015V2.6721C5.50156 2.51976 5.69102 2.50022 5.82774 2.51585Z" fill="url(#paint0_linear_177_2232)"/>
<defs>
<linearGradient id="paint0_linear_177_2232" x1="12.5034" y1="1.48926" x2="12.5034" y2="23.5008" gradientUnits="userSpaceOnUse">
<stop stop-color="#4ABCEC"/>
<stop offset="1" stop-color="#4A8BEC"/>
</linearGradient>
</defs>
</svg>
